<svg xmlns="http://www.w3.org/2000/svg" width="100%" height="auto" viewBox="0 0 225 225" version="1.1">
	<path d="M 96.500 1.109 C 53.298 7.334, 16.811 39.113, 4.639 81.117 C -14.477 147.081, 29.299 214.451, 97.434 223.928 C 145.323 230.588, 193.512 204.461, 214.009 160.722 C 218.547 151.038, 222.835 136.858, 223.686 128.719 C 224.019 125.539, 224.676 122.700, 225.146 122.410 C 225.616 122.120, 226 117.157, 226 111.382 C 226 105.607, 225.613 101.121, 225.140 101.414 C 224.666 101.706, 224.010 99.370, 223.680 96.223 C 222.834 88.137, 218.535 73.937, 214.009 64.278 C 193.426 20.355, 144.703 -5.838, 96.500 1.109 M 34 117.533 L 34 155.066 45.250 154.783 L 56.500 154.500 56.778 140.750 L 57.056 127 69 127 L 80.944 127 81.222 140.750 L 81.500 154.500 95 154.721 L 108.500 154.941 103.809 152.482 C 101.229 151.129, 98.020 148.554, 96.677 146.761 C 94.001 143.186, 91 137.609, 91 136.211 C 91 135.723, 95.489 134.751, 100.975 134.052 L 110.951 132.781 114.052 135.390 C 118.318 138.980, 122.986 138.878, 127.211 135.102 C 129.895 132.704, 130.455 131.480, 130.455 128 C 130.455 124.520, 129.895 123.296, 127.211 120.898 C 122.867 117.016, 118.166 116.986, 113.883 120.813 L 110.734 123.627 101.117 122.223 C 95.828 121.451, 91.381 120.704, 91.236 120.562 C 91.091 120.421, 93.003 111.349, 95.485 100.403 C 97.968 89.456, 99.999 80.371, 99.999 80.212 C 100 80.054, 95.838 80.054, 90.750 80.212 L 81.500 80.500 81.500 96.251 L 81.500 112.002 69.250 112.001 L 57 112 57 96 L 57 80 45.500 80 L 34 80 34 117.533 M 150 87.890 L 150 96 133.083 96 L 116.166 96 115.083 101.049 C 114.487 103.826, 114 106.281, 114 106.505 C 114 106.728, 115.857 106.256, 118.126 105.456 C 126.848 102.378, 138.277 104.307, 145.216 110.027 C 150.570 114.440, 153.002 120.240, 152.990 128.566 C 152.975 139.725, 147.090 149.477, 138 153.408 C 134.648 154.858, 135.081 154.923, 148.250 154.961 L 162 155 162 141.103 L 162 127.206 174.279 126.853 C 185.081 126.542, 187.154 126.193, 191.519 123.945 C 194.513 122.404, 197.669 119.701, 199.475 117.132 C 202.016 113.516, 202.525 111.743, 202.846 105.376 C 203.453 93.353, 199.709 86.374, 190.500 82.365 C 187.330 80.985, 182.714 80.536, 168.250 80.202 L 150 79.781 150 87.890 M 162 103.366 L 162 112 168.050 112 C 177.328 112, 181 109.474, 181 103.093 C 181 98.350, 177.144 95.815, 169.047 95.235 L 162 94.731 162 103.366 M 0.374 112.500 C 0.376 118.550, 0.541 120.896, 0.740 117.713 C 0.939 114.531, 0.937 109.581, 0.736 106.713 C 0.535 103.846, 0.372 106.450, 0.374 112.500" stroke="none" fill="black" fill-rule="evenodd"/>
</svg>