<svg xmlns="http://www.w3.org/2000/svg" width="100%" height="auto" viewBox="0 0 256 256" version="1.1">
	<path d="M 69 63.992 L 69 74 128.036 74 L 187.072 74 186.786 64.250 L 186.500 54.500 127.750 54.242 L 69 53.984 69 63.992 M 110.500 90.893 C 91.414 96.463, 77.249 109.793, 70.262 128.758 C 66.905 137.872, 66.015 154.580, 68.385 164 C 72.888 181.899, 84.703 196.741, 100.160 203.917 C 110.143 208.552, 116.493 210, 126.839 210 C 139.776 210, 150.891 206.065, 160.016 198.255 L 164 194.844 164 200.922 L 164 207 176.500 207 L 189 207 188.983 174.750 C 188.970 150.388, 188.609 140.819, 187.510 135.629 C 182.890 113.826, 165.647 96.135, 143.540 90.515 C 135.348 88.433, 118.262 88.628, 110.500 90.893 M 115.264 112.748 C 108.890 115.384, 102.601 120.266, 99.188 125.227 C 87.039 142.884, 90.677 169.670, 106.833 181.525 C 113.955 186.752, 119.687 188.312, 129.860 187.794 C 140.642 187.245, 146.537 184.476, 153.771 176.560 C 170.900 157.818, 165.738 125.658, 143.784 114.346 C 139.331 112.051, 137.005 111.573, 129 111.309 C 121.681 111.068, 118.528 111.398, 115.264 112.748" stroke="none" fill="black" fill-rule="evenodd"/>
</svg>